<?xml version="1.0" standalone="no"?>
<!DOCTYPE svg PUBLIC "-//W3C//DTD SVG 20010904//EN"
 "http://www.w3.org/TR/2001/REC-SVG-20010904/DTD/svg10.dtd">
<svg version="1.0" xmlns="http://www.w3.org/2000/svg"
 width="550.000000pt" height="550.000000pt" viewBox="0 0 550.000000 550.000000"
 preserveAspectRatio="xMidYMid meet">
<metadata>
Created by potrace 1.11, written by Peter Selinger 2001-2013
</metadata>
<g transform="translate(0.000000,550.000000) scale(0.100000,-0.100000)"
fill="#000000" stroke="none">
<path d="M1800 5114 c-174 -47 -284 -152 -319 -305 -7 -28 -11 -471 -11 -1239
l0 -1195 -202 -120 c-504 -299 -672 -407 -716 -460 -15 -19 -39 -64 -51 -100
-20 -55 -23 -80 -19 -158 3 -76 9 -103 34 -157 40 -86 107 -153 192 -193 59
-28 77 -32 152 -32 83 0 88 1 185 51 102 52 284 155 364 206 25 15 49 28 53
28 4 0 8 -159 8 -352 0 -202 5 -372 11 -397 35 -155 146 -259 324 -306 89 -23
1741 -23 1830 0 178 47 289 151 324 306 7 28 11 398 11 1017 0 883 1 972 16
972 9 0 46 -9 82 -20 147 -44 304 -42 461 6 330 100 566 359 636 699 16 80 23
225 10 244 -15 25 -43 12 -312 -146 -265 -156 -310 -171 -422 -137 -72 21
-115 64 -189 186 -109 182 -130 259 -100 375 19 71 88 132 275 243 230 136
305 188 301 208 -4 23 -69 57 -153 83 -38 11 -83 25 -100 30 -107 34 -309 29
-438 -11 -34 -11 -63 -20 -64 -20 -2 0 -3 78 -3 173 0 94 -5 192 -11 216 -35
155 -146 259 -324 306 -87 22 -1750 22 -1835 -1z m1250 -229 c6 -16 6 -34 0
-50 l-10 -25 -320 0 -320 0 -10 25 c-6 16 -6 34 0 50 l10 25 320 0 320 0 10
-25z m681 -450 l-2 -149 -55 -50 c-124 -110 -232 -298 -279 -483 -14 -57 -31
-115 -37 -130 -27 -63 -102 -164 -146 -196 -50 -37 -311 -197 -600 -369 -94
-57 -335 -200 -535 -319 l-362 -216 -5 1026 c-3 564 -4 1029 -2 1034 2 4 458
6 1014 5 l1010 -3 -1 -150z m1 -2505 l-2 -790 -1010 0 -1010 0 0 215 c0 118
-1 218 -1 222 -1 5 81 57 182 117 101 60 326 193 499 296 173 103 369 219 435
257 66 38 210 123 320 188 418 247 489 282 565 284 l25 1 -3 -790z m-2811
-215 c78 -28 119 -83 119 -160 0 -75 -47 -139 -121 -165 -104 -37 -228 65
-216 178 6 57 51 120 102 143 49 23 61 23 116 4z m1849 -746 c99 -22 170 -108
170 -204 -1 -115 -97 -205 -220 -205 -94 0 -163 43 -201 125 -25 54 -24 110 5
171 27 58 69 93 135 110 57 16 57 16 111 3z"/>
</g>
</svg>
