<?xml version="1.0" standalone="no"?>
<!DOCTYPE svg PUBLIC "-//W3C//DTD SVG 20010904//EN"
 "http://www.w3.org/TR/2001/REC-SVG-20010904/DTD/svg10.dtd">
<svg version="1.0" xmlns="http://www.w3.org/2000/svg"
 width="225.000000pt" height="225.000000pt" viewBox="0 0 225.000000 225.000000"
 preserveAspectRatio="xMidYMid meet">
<metadata>
Created by potrace 1.11, written by Peter Selinger 2001-2013
</metadata>
<g transform="translate(0.000000,225.000000) scale(0.100000,-0.100000)"
fill="#000000" stroke="none">
<path d="M691 2237 c-49 -15 -107 -75 -120 -122 -15 -56 -15 -1924 0 -1980 14
-50 72 -107 126 -123 57 -17 799 -17 856 0 54 16 112 73 126 123 15 56 15
1924 0 1980 -14 50 -72 107 -126 123 -53 16 -812 15 -862 -1z m583 -103 c3 -9
4 -20 0 -25 -3 -5 -70 -9 -149 -9 -79 0 -146 4 -149 9 -4 5 -3 16 0 25 5 14
28 16 149 16 121 0 144 -2 149 -16z m306 -959 l0 -815 -455 0 -455 0 0 815 0
815 455 0 455 0 0 -815z m-410 -900 c61 -32 72 -112 21 -157 -42 -38 -90 -38
-131 -1 -50 44 -43 119 13 154 39 23 59 24 97 4z"/>
</g>
</svg>
